<mxfile host="app.diagrams.net" agent="Mozilla/5.0 (Windows NT 10.0; Win64; x64) AppleWebKit/537.36 (KHTML, like Gecko) Chrome/127.0.0.0 Safari/537.36 OPR/113.0.0.0" version="24.7.17">
  <diagram name="Page-1" id="e7e014a7-5840-1c2e-5031-d8a46d1fe8dd">
    <mxGraphModel dx="1032" dy="565" grid="1" gridSize="10" guides="1" tooltips="1" connect="1" arrows="1" fold="1" page="1" pageScale="1" pageWidth="1169" pageHeight="826" background="none" math="0" shadow="0">
      <root>
        <mxCell id="0" />
        <mxCell id="1" parent="0" />
        <mxCell id="2" value="Create Building" style="swimlane;whiteSpace=wrap;startSize=23;" parent="1" vertex="1">
          <mxGeometry x="150" y="128" width="1200" height="602" as="geometry" />
        </mxCell>
        <mxCell id="5" value="" style="ellipse;shape=startState;fillColor=#000000;strokeColor=#ff0000;" parent="2" vertex="1">
          <mxGeometry x="200" y="40" width="30" height="30" as="geometry" />
        </mxCell>
        <mxCell id="6" value="" style="edgeStyle=elbowEdgeStyle;elbow=horizontal;verticalAlign=bottom;endArrow=open;endSize=8;strokeColor=#FF0000;endFill=1;rounded=0" parent="2" source="5" target="7" edge="1">
          <mxGeometry x="100" y="40" as="geometry">
            <mxPoint x="115" y="110" as="targetPoint" />
          </mxGeometry>
        </mxCell>
        <mxCell id="7" value="Create BuildingÂ &#xa;Promt Chosen" style="" parent="2" vertex="1">
          <mxGeometry x="165" y="111" width="110" height="50" as="geometry" />
        </mxCell>
        <mxCell id="9" value="" style="endArrow=open;strokeColor=#FF0000;endFill=1;rounded=0;entryX=0.5;entryY=0;entryDx=0;entryDy=0;" parent="2" source="7" target="dpdqgHvW-5lDKjuWNhoI-41" edge="1">
          <mxGeometry relative="1" as="geometry">
            <mxPoint x="115" y="220" as="targetPoint" />
            <Array as="points" />
          </mxGeometry>
        </mxCell>
        <mxCell id="dpdqgHvW-5lDKjuWNhoI-41" value="" style="rhombus;whiteSpace=wrap;html=1;fontColor=#000000;fillColor=#ffffc0;strokeColor=#ff0000;" parent="2" vertex="1">
          <mxGeometry x="180" y="224" width="80" height="40" as="geometry" />
        </mxCell>
        <mxCell id="dpdqgHvW-5lDKjuWNhoI-42" value="Player Chose Public Service" style="edgeStyle=orthogonalEdgeStyle;html=1;align=left;verticalAlign=bottom;endArrow=open;endSize=8;strokeColor=#ff0000;rounded=0;entryX=0;entryY=0.5;entryDx=0;entryDy=0;exitX=1;exitY=0.5;exitDx=0;exitDy=0;" parent="2" source="dpdqgHvW-5lDKjuWNhoI-41" target="dpdqgHvW-5lDKjuWNhoI-51" edge="1">
          <mxGeometry x="0.3151" relative="1" as="geometry">
            <mxPoint x="405.62" y="222" as="targetPoint" />
            <mxPoint x="275.5023529411766" y="222.0588235294117" as="sourcePoint" />
            <mxPoint as="offset" />
          </mxGeometry>
        </mxCell>
        <mxCell id="dpdqgHvW-5lDKjuWNhoI-44" value="Player Chose Commerce" style="edgeStyle=orthogonalEdgeStyle;html=1;align=left;verticalAlign=bottom;endArrow=open;endSize=8;strokeColor=#ff0000;rounded=0;exitX=1;exitY=0.5;exitDx=0;exitDy=0;entryX=0;entryY=0.5;entryDx=0;entryDy=0;" parent="2" source="dpdqgHvW-5lDKjuWNhoI-41" target="dpdqgHvW-5lDKjuWNhoI-50" edge="1">
          <mxGeometry x="0.1202" relative="1" as="geometry">
            <mxPoint x="405.62" y="112" as="targetPoint" />
            <mxPoint x="275.62" y="222" as="sourcePoint" />
            <mxPoint as="offset" />
          </mxGeometry>
        </mxCell>
        <mxCell id="dpdqgHvW-5lDKjuWNhoI-46" value="Player Chose Industrial" style="edgeStyle=orthogonalEdgeStyle;html=1;align=left;verticalAlign=bottom;endArrow=open;endSize=8;strokeColor=#ff0000;rounded=0;exitX=1;exitY=0.5;exitDx=0;exitDy=0;entryX=0;entryY=0.5;entryDx=0;entryDy=0;" parent="2" source="dpdqgHvW-5lDKjuWNhoI-41" target="dpdqgHvW-5lDKjuWNhoI-49" edge="1">
          <mxGeometry x="0.1477" relative="1" as="geometry">
            <mxPoint x="405.62" y="134.57999999999998" as="targetPoint" />
            <mxPoint x="275.62" y="222" as="sourcePoint" />
            <mxPoint as="offset" />
          </mxGeometry>
        </mxCell>
        <mxCell id="dpdqgHvW-5lDKjuWNhoI-47" value="Player Chose Residential" style="edgeStyle=orthogonalEdgeStyle;html=1;align=left;verticalAlign=bottom;endArrow=open;endSize=8;strokeColor=#ff0000;rounded=0;exitX=1;exitY=0.5;exitDx=0;exitDy=0;entryX=0;entryY=0.5;entryDx=0;entryDy=0;" parent="2" source="dpdqgHvW-5lDKjuWNhoI-41" target="dpdqgHvW-5lDKjuWNhoI-48" edge="1">
          <mxGeometry x="0.3243" relative="1" as="geometry">
            <mxPoint x="405.62" y="160" as="targetPoint" />
            <mxPoint x="275.62" y="222" as="sourcePoint" />
            <mxPoint as="offset" />
          </mxGeometry>
        </mxCell>
        <mxCell id="dpdqgHvW-5lDKjuWNhoI-48" value="Building Choice" style="rhombus;whiteSpace=wrap;html=1;fontColor=#000000;fillColor=#ffffc0;strokeColor=#ff0000;" parent="2" vertex="1">
          <mxGeometry x="560" y="80" width="110" height="40" as="geometry" />
        </mxCell>
        <mxCell id="dpdqgHvW-5lDKjuWNhoI-49" value="Building Choice" style="rhombus;whiteSpace=wrap;html=1;fontColor=#000000;fillColor=#ffffc0;strokeColor=#ff0000;" parent="2" vertex="1">
          <mxGeometry x="560" y="172" width="110" height="40" as="geometry" />
        </mxCell>
        <mxCell id="dpdqgHvW-5lDKjuWNhoI-50" value="Building Choice" style="rhombus;whiteSpace=wrap;html=1;fontColor=#000000;fillColor=#ffffc0;strokeColor=#ff0000;" parent="2" vertex="1">
          <mxGeometry x="560" y="265" width="110" height="40" as="geometry" />
        </mxCell>
        <mxCell id="dpdqgHvW-5lDKjuWNhoI-51" value="Building Choice" style="rhombus;whiteSpace=wrap;html=1;fontColor=#000000;fillColor=#ffffc0;strokeColor=#ff0000;" parent="2" vertex="1">
          <mxGeometry x="560" y="362" width="110" height="40" as="geometry" />
        </mxCell>
        <mxCell id="dpdqgHvW-5lDKjuWNhoI-54" value="Player Choose" style="edgeStyle=orthogonalEdgeStyle;html=1;align=left;verticalAlign=bottom;endArrow=open;endSize=8;strokeColor=#ff0000;rounded=0;" parent="2" edge="1">
          <mxGeometry x="-0.4284" relative="1" as="geometry">
            <mxPoint x="770" y="62" as="targetPoint" />
            <mxPoint x="670" y="102" as="sourcePoint" />
            <mxPoint as="offset" />
            <Array as="points">
              <mxPoint x="670" y="62" />
            </Array>
          </mxGeometry>
        </mxCell>
        <mxCell id="dpdqgHvW-5lDKjuWNhoI-57" value="Create House" style="" parent="2" vertex="1">
          <mxGeometry x="770" y="52" width="110" height="28" as="geometry" />
        </mxCell>
        <mxCell id="dpdqgHvW-5lDKjuWNhoI-62" value="Create Flat" style="" parent="2" vertex="1">
          <mxGeometry x="770" y="88" width="110" height="28" as="geometry" />
        </mxCell>
        <mxCell id="dpdqgHvW-5lDKjuWNhoI-61" value="Create Skyscraper" style="" parent="2" vertex="1">
          <mxGeometry x="770" y="122" width="110" height="28" as="geometry" />
        </mxCell>
        <mxCell id="dpdqgHvW-5lDKjuWNhoI-69" value="Player Choose" style="edgeStyle=orthogonalEdgeStyle;html=1;align=left;verticalAlign=bottom;endArrow=open;endSize=8;strokeColor=#ff0000;rounded=0;" parent="2" edge="1">
          <mxGeometry x="-0.4284" relative="1" as="geometry">
            <mxPoint x="770" y="170" as="targetPoint" />
            <mxPoint x="670" y="210" as="sourcePoint" />
            <mxPoint as="offset" />
            <Array as="points">
              <mxPoint x="670" y="170" />
            </Array>
          </mxGeometry>
        </mxCell>
        <mxCell id="dpdqgHvW-5lDKjuWNhoI-73" value="Player Choose" style="edgeStyle=orthogonalEdgeStyle;html=1;align=left;verticalAlign=bottom;endArrow=open;endSize=8;strokeColor=#ff0000;rounded=0;exitX=1;exitY=0.5;exitDx=0;exitDy=0;entryX=0.001;entryY=0.599;entryDx=0;entryDy=0;entryPerimeter=0;" parent="2" target="dpdqgHvW-5lDKjuWNhoI-88" edge="1">
          <mxGeometry x="-1" relative="1" as="geometry">
            <mxPoint x="770" y="210" as="targetPoint" />
            <mxPoint x="670" y="208" as="sourcePoint" />
            <mxPoint as="offset" />
            <Array as="points">
              <mxPoint x="670" y="212" />
              <mxPoint x="770" y="212" />
            </Array>
          </mxGeometry>
        </mxCell>
        <mxCell id="dpdqgHvW-5lDKjuWNhoI-74" value="Player Choose" style="edgeStyle=orthogonalEdgeStyle;html=1;align=left;verticalAlign=bottom;endArrow=open;endSize=8;strokeColor=#ff0000;rounded=0;exitX=1;exitY=0.5;exitDx=0;exitDy=0;" parent="2" edge="1">
          <mxGeometry x="-0.4284" relative="1" as="geometry">
            <mxPoint x="770" y="250" as="targetPoint" />
            <mxPoint x="670" y="208" as="sourcePoint" />
            <mxPoint as="offset" />
            <Array as="points">
              <mxPoint x="670" y="250" />
              <mxPoint x="770" y="250" />
            </Array>
          </mxGeometry>
        </mxCell>
        <mxCell id="dpdqgHvW-5lDKjuWNhoI-75" value="Player Choose" style="edgeStyle=orthogonalEdgeStyle;html=1;align=left;verticalAlign=bottom;endArrow=open;endSize=8;strokeColor=#ff0000;rounded=0;" parent="2" edge="1">
          <mxGeometry x="-0.4284" relative="1" as="geometry">
            <mxPoint x="770" y="275" as="targetPoint" />
            <mxPoint x="670" y="315" as="sourcePoint" />
            <mxPoint as="offset" />
            <Array as="points">
              <mxPoint x="670" y="275" />
            </Array>
          </mxGeometry>
        </mxCell>
        <mxCell id="dpdqgHvW-5lDKjuWNhoI-79" value="Player Choose" style="edgeStyle=orthogonalEdgeStyle;html=1;align=left;verticalAlign=bottom;endArrow=open;endSize=8;strokeColor=#ff0000;rounded=0;exitX=1;exitY=0.5;exitDx=0;exitDy=0;" parent="2" edge="1">
          <mxGeometry x="-1" relative="1" as="geometry">
            <mxPoint x="770" y="315" as="targetPoint" />
            <mxPoint x="670" y="313" as="sourcePoint" />
            <mxPoint as="offset" />
            <Array as="points">
              <mxPoint x="670" y="315" />
            </Array>
          </mxGeometry>
        </mxCell>
        <mxCell id="dpdqgHvW-5lDKjuWNhoI-80" value="Player Choose" style="edgeStyle=orthogonalEdgeStyle;html=1;align=left;verticalAlign=bottom;endArrow=open;endSize=8;strokeColor=#ff0000;rounded=0;exitX=1;exitY=0.5;exitDx=0;exitDy=0;" parent="2" edge="1">
          <mxGeometry x="-0.4284" relative="1" as="geometry">
            <mxPoint x="770" y="355" as="targetPoint" />
            <mxPoint x="670" y="313" as="sourcePoint" />
            <mxPoint as="offset" />
            <Array as="points">
              <mxPoint x="670" y="355" />
              <mxPoint x="770" y="355" />
            </Array>
          </mxGeometry>
        </mxCell>
        <mxCell id="dpdqgHvW-5lDKjuWNhoI-81" value="Player Choose" style="edgeStyle=orthogonalEdgeStyle;html=1;align=left;verticalAlign=bottom;endArrow=open;endSize=8;strokeColor=#ff0000;rounded=0;" parent="2" edge="1">
          <mxGeometry x="-0.4284" relative="1" as="geometry">
            <mxPoint x="770" y="382" as="targetPoint" />
            <mxPoint x="670" y="422" as="sourcePoint" />
            <mxPoint as="offset" />
            <Array as="points">
              <mxPoint x="670" y="382" />
            </Array>
          </mxGeometry>
        </mxCell>
        <mxCell id="dpdqgHvW-5lDKjuWNhoI-85" value="Player Choose" style="edgeStyle=orthogonalEdgeStyle;html=1;align=left;verticalAlign=bottom;endArrow=open;endSize=8;strokeColor=#ff0000;rounded=0;exitX=1;exitY=0.5;exitDx=0;exitDy=0;" parent="2" edge="1">
          <mxGeometry x="-1" y="-2" relative="1" as="geometry">
            <mxPoint x="770" y="420" as="targetPoint" />
            <mxPoint x="670" y="420" as="sourcePoint" />
            <mxPoint as="offset" />
            <Array as="points">
              <mxPoint x="720" y="420" />
              <mxPoint x="720" y="420" />
            </Array>
          </mxGeometry>
        </mxCell>
        <mxCell id="dpdqgHvW-5lDKjuWNhoI-86" value="Player Choose" style="edgeStyle=orthogonalEdgeStyle;html=1;align=left;verticalAlign=bottom;endArrow=open;endSize=8;strokeColor=#ff0000;rounded=0;exitX=1;exitY=0.5;exitDx=0;exitDy=0;" parent="2" edge="1">
          <mxGeometry x="-0.4284" relative="1" as="geometry">
            <mxPoint x="770" y="462" as="targetPoint" />
            <mxPoint x="670" y="420" as="sourcePoint" />
            <mxPoint as="offset" />
            <Array as="points">
              <mxPoint x="670" y="462" />
              <mxPoint x="770" y="462" />
            </Array>
          </mxGeometry>
        </mxCell>
        <mxCell id="dpdqgHvW-5lDKjuWNhoI-87" value="Create Factory" style="" parent="2" vertex="1">
          <mxGeometry x="770" y="160" width="110" height="28" as="geometry" />
        </mxCell>
        <mxCell id="dpdqgHvW-5lDKjuWNhoI-88" value="Create Powerplant" style="" parent="2" vertex="1">
          <mxGeometry x="770" y="196" width="110" height="28" as="geometry" />
        </mxCell>
        <mxCell id="dpdqgHvW-5lDKjuWNhoI-89" value="Create Warehouse" style="" parent="2" vertex="1">
          <mxGeometry x="770" y="230" width="110" height="28" as="geometry" />
        </mxCell>
        <mxCell id="dpdqgHvW-5lDKjuWNhoI-90" value="Create Shop" style="" parent="2" vertex="1">
          <mxGeometry x="770" y="265" width="110" height="28" as="geometry" />
        </mxCell>
        <mxCell id="dpdqgHvW-5lDKjuWNhoI-91" value="Create Office" style="" parent="2" vertex="1">
          <mxGeometry x="770" y="301" width="110" height="28" as="geometry" />
        </mxCell>
        <mxCell id="dpdqgHvW-5lDKjuWNhoI-92" value="Create Mall" style="" parent="2" vertex="1">
          <mxGeometry x="770" y="335" width="110" height="28" as="geometry" />
        </mxCell>
        <mxCell id="dpdqgHvW-5lDKjuWNhoI-93" value="Create Medical Cen" style="" parent="2" vertex="1">
          <mxGeometry x="770" y="372" width="110" height="28" as="geometry" />
        </mxCell>
        <mxCell id="dpdqgHvW-5lDKjuWNhoI-94" value="Create School" style="" parent="2" vertex="1">
          <mxGeometry x="770" y="408" width="110" height="28" as="geometry" />
        </mxCell>
        <mxCell id="dpdqgHvW-5lDKjuWNhoI-95" value="Create Skyscraper" style="fontSize=11;" parent="2" vertex="1">
          <mxGeometry x="770" y="442" width="110" height="28" as="geometry" />
        </mxCell>
        <mxCell id="dpdqgHvW-5lDKjuWNhoI-97" value="Building Choice" style="rhombus;whiteSpace=wrap;html=1;fontColor=#000000;fillColor=#ffffc0;strokeColor=#ff0000;" parent="2" vertex="1">
          <mxGeometry x="560" y="472" width="110" height="40" as="geometry" />
        </mxCell>
        <mxCell id="dpdqgHvW-5lDKjuWNhoI-98" value="Player Choose" style="edgeStyle=orthogonalEdgeStyle;html=1;align=left;verticalAlign=bottom;endArrow=open;endSize=8;strokeColor=#ff0000;rounded=0;" parent="2" edge="1">
          <mxGeometry x="-0.4284" relative="1" as="geometry">
            <mxPoint x="770" y="492" as="targetPoint" />
            <mxPoint x="670" y="532" as="sourcePoint" />
            <mxPoint as="offset" />
            <Array as="points">
              <mxPoint x="670" y="492" />
            </Array>
          </mxGeometry>
        </mxCell>
        <mxCell id="dpdqgHvW-5lDKjuWNhoI-99" value="Player Choose" style="edgeStyle=orthogonalEdgeStyle;html=1;align=left;verticalAlign=bottom;endArrow=open;endSize=8;strokeColor=#ff0000;rounded=0;exitX=1;exitY=0.5;exitDx=0;exitDy=0;" parent="2" edge="1">
          <mxGeometry x="-1" y="-2" relative="1" as="geometry">
            <mxPoint x="770" y="530" as="targetPoint" />
            <mxPoint x="670" y="530" as="sourcePoint" />
            <mxPoint as="offset" />
            <Array as="points">
              <mxPoint x="720" y="530" />
              <mxPoint x="720" y="530" />
            </Array>
          </mxGeometry>
        </mxCell>
        <mxCell id="dpdqgHvW-5lDKjuWNhoI-100" value="Player Choose" style="edgeStyle=orthogonalEdgeStyle;html=1;align=left;verticalAlign=bottom;endArrow=open;endSize=8;strokeColor=#ff0000;rounded=0;exitX=1;exitY=0.5;exitDx=0;exitDy=0;" parent="2" edge="1">
          <mxGeometry x="-0.4284" relative="1" as="geometry">
            <mxPoint x="770" y="572" as="targetPoint" />
            <mxPoint x="670" y="530" as="sourcePoint" />
            <mxPoint as="offset" />
            <Array as="points">
              <mxPoint x="670" y="572" />
              <mxPoint x="770" y="572" />
            </Array>
          </mxGeometry>
        </mxCell>
        <mxCell id="dpdqgHvW-5lDKjuWNhoI-101" value="Create Culture Cen" style="" parent="2" vertex="1">
          <mxGeometry x="770" y="482" width="110" height="28" as="geometry" />
        </mxCell>
        <mxCell id="dpdqgHvW-5lDKjuWNhoI-102" value="Create Monument" style="" parent="2" vertex="1">
          <mxGeometry x="770" y="518" width="110" height="28" as="geometry" />
        </mxCell>
        <mxCell id="dpdqgHvW-5lDKjuWNhoI-103" value="Create Parks" style="fontSize=11;" parent="2" vertex="1">
          <mxGeometry x="770" y="552" width="110" height="28" as="geometry" />
        </mxCell>
        <mxCell id="dpdqgHvW-5lDKjuWNhoI-104" value="Player Chose Landmark" style="edgeStyle=orthogonalEdgeStyle;html=1;align=left;verticalAlign=bottom;endArrow=open;endSize=8;strokeColor=#ff0000;rounded=0;exitX=1;exitY=0.5;exitDx=0;exitDy=0;entryX=0;entryY=0.5;entryDx=0;entryDy=0;" parent="2" source="dpdqgHvW-5lDKjuWNhoI-41" target="dpdqgHvW-5lDKjuWNhoI-97" edge="1">
          <mxGeometry x="0.4526" relative="1" as="geometry">
            <mxPoint x="474.38" y="512" as="targetPoint" />
            <mxPoint x="190" y="449" as="sourcePoint" />
            <mxPoint as="offset" />
          </mxGeometry>
        </mxCell>
        <mxCell id="dpdqgHvW-5lDKjuWNhoI-106" value="" style="rhombus;whiteSpace=wrap;html=1;fontColor=#000000;fillColor=#ffffc0;strokeColor=#ff0000;" parent="2" vertex="1">
          <mxGeometry x="939" y="322" width="80" height="40" as="geometry" />
        </mxCell>
        <mxCell id="dpdqgHvW-5lDKjuWNhoI-107" value="" style="ellipse;html=1;shape=endState;fillColor=#000000;strokeColor=#ff0000;" parent="2" vertex="1">
          <mxGeometry x="1080" y="327" width="30" height="30" as="geometry" />
        </mxCell>
        <mxCell id="dpdqgHvW-5lDKjuWNhoI-108" value="" style="endArrow=open;strokeColor=#FF0000;endFill=1;rounded=0;entryX=0;entryY=0.5;entryDx=0;entryDy=0;exitX=1;exitY=0.5;exitDx=0;exitDy=0;" parent="2" source="dpdqgHvW-5lDKjuWNhoI-106" target="dpdqgHvW-5lDKjuWNhoI-107" edge="1">
          <mxGeometry relative="1" as="geometry">
            <mxPoint x="975" y="202" as="sourcePoint" />
            <mxPoint x="920" y="265" as="targetPoint" />
            <Array as="points" />
          </mxGeometry>
        </mxCell>
        <mxCell id="dpdqgHvW-5lDKjuWNhoI-109" value="" style="endArrow=open;strokeColor=#FF0000;endFill=1;rounded=0;entryX=0.5;entryY=0;entryDx=0;entryDy=0;exitX=1;exitY=0.5;exitDx=0;exitDy=0;" parent="2" source="dpdqgHvW-5lDKjuWNhoI-57" target="dpdqgHvW-5lDKjuWNhoI-106" edge="1">
          <mxGeometry relative="1" as="geometry">
            <mxPoint x="960" y="143" as="sourcePoint" />
            <mxPoint x="959.5" y="205.5" as="targetPoint" />
            <Array as="points">
              <mxPoint x="980" y="66" />
            </Array>
          </mxGeometry>
        </mxCell>
        <mxCell id="dpdqgHvW-5lDKjuWNhoI-111" value="" style="endArrow=open;strokeColor=#FF0000;endFill=1;rounded=0;exitX=1;exitY=0.5;exitDx=0;exitDy=0;" parent="2" source="dpdqgHvW-5lDKjuWNhoI-61" edge="1">
          <mxGeometry relative="1" as="geometry">
            <mxPoint x="880" y="144" as="sourcePoint" />
            <mxPoint x="979" y="322" as="targetPoint" />
            <Array as="points">
              <mxPoint x="979" y="136" />
            </Array>
          </mxGeometry>
        </mxCell>
        <mxCell id="dpdqgHvW-5lDKjuWNhoI-110" value="" style="endArrow=open;strokeColor=#FF0000;endFill=1;rounded=0;entryX=0.5;entryY=0;entryDx=0;entryDy=0;exitX=1;exitY=0.5;exitDx=0;exitDy=0;" parent="2" source="dpdqgHvW-5lDKjuWNhoI-62" target="dpdqgHvW-5lDKjuWNhoI-106" edge="1">
          <mxGeometry relative="1" as="geometry">
            <mxPoint x="890" y="76" as="sourcePoint" />
            <mxPoint x="989" y="332" as="targetPoint" />
            <Array as="points">
              <mxPoint x="980" y="102" />
            </Array>
          </mxGeometry>
        </mxCell>
        <mxCell id="dpdqgHvW-5lDKjuWNhoI-162" value="" style="endArrow=open;strokeColor=#FF0000;endFill=1;rounded=0;exitX=1;exitY=0.5;exitDx=0;exitDy=0;entryX=0.5;entryY=0;entryDx=0;entryDy=0;" parent="2" source="dpdqgHvW-5lDKjuWNhoI-87" target="dpdqgHvW-5lDKjuWNhoI-106" edge="1">
          <mxGeometry relative="1" as="geometry">
            <mxPoint x="890" y="176" as="sourcePoint" />
            <mxPoint x="989" y="362" as="targetPoint" />
            <Array as="points">
              <mxPoint x="980" y="174" />
            </Array>
          </mxGeometry>
        </mxCell>
        <mxCell id="dpdqgHvW-5lDKjuWNhoI-163" value="" style="endArrow=open;strokeColor=#FF0000;endFill=1;rounded=0;exitX=1;exitY=0.5;exitDx=0;exitDy=0;entryX=0.5;entryY=0;entryDx=0;entryDy=0;" parent="2" source="dpdqgHvW-5lDKjuWNhoI-88" target="dpdqgHvW-5lDKjuWNhoI-106" edge="1">
          <mxGeometry relative="1" as="geometry">
            <mxPoint x="900" y="156" as="sourcePoint" />
            <mxPoint x="999" y="342" as="targetPoint" />
            <Array as="points">
              <mxPoint x="980" y="210" />
            </Array>
          </mxGeometry>
        </mxCell>
        <mxCell id="dpdqgHvW-5lDKjuWNhoI-164" value="" style="endArrow=open;strokeColor=#FF0000;endFill=1;rounded=0;exitX=1;exitY=0.5;exitDx=0;exitDy=0;entryX=0.5;entryY=0;entryDx=0;entryDy=0;" parent="2" source="dpdqgHvW-5lDKjuWNhoI-89" target="dpdqgHvW-5lDKjuWNhoI-106" edge="1">
          <mxGeometry relative="1" as="geometry">
            <mxPoint x="910" y="166" as="sourcePoint" />
            <mxPoint x="1009" y="352" as="targetPoint" />
            <Array as="points">
              <mxPoint x="980" y="244" />
            </Array>
          </mxGeometry>
        </mxCell>
        <mxCell id="dpdqgHvW-5lDKjuWNhoI-166" value="" style="endArrow=open;strokeColor=#FF0000;endFill=1;rounded=0;exitX=1;exitY=0.25;exitDx=0;exitDy=0;entryX=0.5;entryY=0;entryDx=0;entryDy=0;" parent="2" source="dpdqgHvW-5lDKjuWNhoI-91" target="dpdqgHvW-5lDKjuWNhoI-106" edge="1">
          <mxGeometry relative="1" as="geometry">
            <mxPoint x="890" y="289" as="sourcePoint" />
            <mxPoint x="990" y="332" as="targetPoint" />
            <Array as="points">
              <mxPoint x="979" y="312" />
            </Array>
          </mxGeometry>
        </mxCell>
        <mxCell id="dpdqgHvW-5lDKjuWNhoI-167" value="" style="endArrow=open;strokeColor=#FF0000;endFill=1;rounded=0;exitX=1;exitY=0.25;exitDx=0;exitDy=0;entryX=0;entryY=0.5;entryDx=0;entryDy=0;" parent="2" source="dpdqgHvW-5lDKjuWNhoI-92" target="dpdqgHvW-5lDKjuWNhoI-106" edge="1">
          <mxGeometry relative="1" as="geometry">
            <mxPoint x="890" y="289" as="sourcePoint" />
            <mxPoint x="990" y="332" as="targetPoint" />
            <Array as="points">
              <mxPoint x="910" y="342" />
            </Array>
          </mxGeometry>
        </mxCell>
        <mxCell id="dpdqgHvW-5lDKjuWNhoI-168" value="" style="endArrow=open;strokeColor=#FF0000;endFill=1;rounded=0;exitX=1;exitY=0.25;exitDx=0;exitDy=0;entryX=0.5;entryY=1;entryDx=0;entryDy=0;" parent="2" target="dpdqgHvW-5lDKjuWNhoI-106" edge="1">
          <mxGeometry relative="1" as="geometry">
            <mxPoint x="880" y="385.65999999999997" as="sourcePoint" />
            <mxPoint x="939" y="385.65999999999997" as="targetPoint" />
            <Array as="points">
              <mxPoint x="980" y="386" />
            </Array>
          </mxGeometry>
        </mxCell>
        <mxCell id="dpdqgHvW-5lDKjuWNhoI-170" value="" style="endArrow=open;strokeColor=#FF0000;endFill=1;rounded=0;exitX=1;exitY=0.5;exitDx=0;exitDy=0;entryX=0.5;entryY=1;entryDx=0;entryDy=0;" parent="2" source="dpdqgHvW-5lDKjuWNhoI-95" target="dpdqgHvW-5lDKjuWNhoI-106" edge="1">
          <mxGeometry relative="1" as="geometry">
            <mxPoint x="900" y="405.65999999999997" as="sourcePoint" />
            <mxPoint x="999" y="382" as="targetPoint" />
            <Array as="points">
              <mxPoint x="980" y="456" />
            </Array>
          </mxGeometry>
        </mxCell>
        <mxCell id="dpdqgHvW-5lDKjuWNhoI-171" value="" style="endArrow=open;strokeColor=#FF0000;endFill=1;rounded=0;exitX=1;exitY=0.5;exitDx=0;exitDy=0;entryX=0.5;entryY=1;entryDx=0;entryDy=0;" parent="2" source="dpdqgHvW-5lDKjuWNhoI-101" target="dpdqgHvW-5lDKjuWNhoI-106" edge="1">
          <mxGeometry relative="1" as="geometry">
            <mxPoint x="910" y="415.65999999999997" as="sourcePoint" />
            <mxPoint x="1009" y="392" as="targetPoint" />
            <Array as="points">
              <mxPoint x="980" y="496" />
            </Array>
          </mxGeometry>
        </mxCell>
        <mxCell id="dpdqgHvW-5lDKjuWNhoI-55" value="Player Choose" style="edgeStyle=orthogonalEdgeStyle;html=1;align=left;verticalAlign=bottom;endArrow=open;endSize=8;strokeColor=#ff0000;rounded=0;exitX=1;exitY=0.5;exitDx=0;exitDy=0;entryX=0;entryY=0.5;entryDx=0;entryDy=0;" parent="2" source="dpdqgHvW-5lDKjuWNhoI-48" target="dpdqgHvW-5lDKjuWNhoI-62" edge="1">
          <mxGeometry x="-1" relative="1" as="geometry">
            <mxPoint x="750" y="102" as="targetPoint" />
            <mxPoint x="800" y="112" as="sourcePoint" />
            <mxPoint as="offset" />
            <Array as="points">
              <mxPoint x="670" y="102" />
            </Array>
          </mxGeometry>
        </mxCell>
        <mxCell id="dpdqgHvW-5lDKjuWNhoI-56" value="Player Choose" style="edgeStyle=orthogonalEdgeStyle;html=1;align=left;verticalAlign=bottom;endArrow=open;endSize=8;strokeColor=#ff0000;rounded=0;exitX=1;exitY=0.5;exitDx=0;exitDy=0;entryX=0;entryY=0.5;entryDx=0;entryDy=0;" parent="2" source="dpdqgHvW-5lDKjuWNhoI-48" target="dpdqgHvW-5lDKjuWNhoI-61" edge="1">
          <mxGeometry x="-0.4284" relative="1" as="geometry">
            <mxPoint x="780" y="142" as="targetPoint" />
            <mxPoint x="720" y="162.01999999999998" as="sourcePoint" />
            <mxPoint as="offset" />
            <Array as="points">
              <mxPoint x="670" y="136" />
            </Array>
          </mxGeometry>
        </mxCell>
        <mxCell id="dpdqgHvW-5lDKjuWNhoI-165" value="" style="endArrow=open;strokeColor=#FF0000;endFill=1;rounded=0;exitX=1;exitY=0.5;exitDx=0;exitDy=0;" parent="1" source="dpdqgHvW-5lDKjuWNhoI-90" edge="1">
          <mxGeometry relative="1" as="geometry">
            <mxPoint x="1040" y="382" as="sourcePoint" />
            <mxPoint x="1130" y="450" as="targetPoint" />
            <Array as="points">
              <mxPoint x="1130" y="407" />
            </Array>
          </mxGeometry>
        </mxCell>
        <mxCell id="dpdqgHvW-5lDKjuWNhoI-169" value="" style="endArrow=open;strokeColor=#FF0000;endFill=1;rounded=0;exitX=1;exitY=0.5;exitDx=0;exitDy=0;" parent="1" source="dpdqgHvW-5lDKjuWNhoI-94" edge="1">
          <mxGeometry relative="1" as="geometry">
            <mxPoint x="1040" y="523.66" as="sourcePoint" />
            <mxPoint x="1130" y="490" as="targetPoint" />
            <Array as="points">
              <mxPoint x="1130" y="550" />
            </Array>
          </mxGeometry>
        </mxCell>
        <mxCell id="dpdqgHvW-5lDKjuWNhoI-172" value="" style="endArrow=open;strokeColor=#FF0000;endFill=1;rounded=0;exitX=1;exitY=0.5;exitDx=0;exitDy=0;" parent="1" source="dpdqgHvW-5lDKjuWNhoI-102" edge="1">
          <mxGeometry relative="1" as="geometry">
            <mxPoint x="1070" y="553.66" as="sourcePoint" />
            <mxPoint x="1130" y="490" as="targetPoint" />
            <Array as="points">
              <mxPoint x="1130" y="660" />
            </Array>
          </mxGeometry>
        </mxCell>
        <mxCell id="dpdqgHvW-5lDKjuWNhoI-173" value="" style="endArrow=open;strokeColor=#FF0000;endFill=1;rounded=0;exitX=1;exitY=0.5;exitDx=0;exitDy=0;" parent="1" source="dpdqgHvW-5lDKjuWNhoI-103" edge="1">
          <mxGeometry relative="1" as="geometry">
            <mxPoint x="1080" y="563.66" as="sourcePoint" />
            <mxPoint x="1130" y="490" as="targetPoint" />
            <Array as="points">
              <mxPoint x="1130" y="694" />
            </Array>
          </mxGeometry>
        </mxCell>
      </root>
    </mxGraphModel>
  </diagram>
</mxfile>
